# xmcd CD database file
#
# Track frame offsets:
#	150
#	28635
#	56052
#	77215
#	100973
#	117635
#	133978
#	164053
#	190985
#	207420
#	235010
#	254547
#	293799
#	311771
#
# Disc length: 4499 seconds
#
# Revision: 0
# Processed by: cddbd v1.4PL0 Copyright (c) Steve Scherf et al.
# Submitted via: CDex 1.50beta8
#
DISCID=db11910e
DTITLE=Various Artist - Blues - Review
DYEAR=2001
DGENRE=Blues
TTITLE0=Wolter Trout Band - The Reason I`m Gone
TTITLE1=Jeff Healey Band - I Think I Love You Too Much
TTITLE2=Pat Boyack and The Prowlers - I Know It`s Over
TTITLE3=Vargas Blues Band - Do You Believe in Love
TTITLE4=Michael Hill`s Blues Mob - Can`t Recall a Time
TTITLE5=Colin James - Standing on The Edge
TTITLE6=Innes Sibun - Obsession
TTITLE7=Julian Sas - Is This What They Call The Blues
TTITLE8=Savoy Brown - Sweet Loving Thing
TTITLE9=Tinsley Ellis - A Quitter Never Wins
TTITLE10=Luther Allison - Cherry Red Wine
TTITLE11=James Solberg Band - St. James Infirmary Blues
TTITLE12=Lousiana Gator Boys and Blues Brothers Band - New Orleans
TTITLE13=Wolter Trout Band - Mane`s Mood
EXTD=YEAR: 2001
EXTT0=
EXTT1=
EXTT2=
EXTT3=
EXTT4=
EXTT5=
EXTT6=
EXTT7=
EXTT8=
EXTT9=
EXTT10=
EXTT11=
EXTT12=
EXTT13=
PLAYORDER=
